Coordinates
version=1
nRows=31
nColumns=38
inDegrees=no

Units are S.I. units (second, meters, Newtons, ...)
If the header above contains a line with 'inDegrees', this indicates whether rotational values are in degrees (yes) or radians (no).

endheader
time	pelvis_tilt	pelvis_list	pelvis_rotation	pelvis_tx	pelvis_ty	pelvis_tz	hip_flexion_r	hip_adduction_r	hip_rotation_r	knee_angle_r	ankle_angle_r	subtalar_angle_r	mtp_angle_r	hip_flexion_l	hip_adduction_l	hip_rotation_l	knee_angle_l	ankle_angle_l	subtalar_angle_l	mtp_angle_l	lumbar_extension	lumbar_bending	lumbar_rotation	arm_flex_r	arm_add_r	arm_rot_r	elbow_flex_r	pro_sup_r	wrist_flex_r	wrist_dev_r	arm_flex_l	arm_add_l	arm_rot_l	elbow_flex_l	pro_sup_l	wrist_flex_l	wrist_dev_l
2.69	-0.129432	-0.130407	0.0369098	0.701095	0.988052	-0.33568	0.863855	-0.0549707	-0.236519	-2.13228	0.282267	0.1	-4.23075e-05	0.112484	-0.218028	-0.462556	-0.684219	0.544545	0.1	2.91853e-05	-0.0864355	0.0899319	-0.220734	-0.455315	-0.448391	0.150478	1.12573	1.40083	0.0999999	-0.0715173	0.0839498	-0.70314	0.352632	1.97072	1.50977	0.0610603	-0.0496122
2.7	-0.119521	-0.149392	0.0337639	0.70269	0.996438	-0.335412	0.893364	-0.0325499	-0.244639	-2.04338	0.2943	0.1	-4.23075e-05	0.0235744	-0.239369	-0.497423	-0.622006	0.455242	0.1	2.91853e-05	-0.095054	0.117917	-0.236476	-0.482658	-0.460855	0.146124	1.14934	1.38767	0.0999999	-0.0715173	0.0992332	-0.683181	0.329645	2.00948	1.49608	0.0610603	-0.0496122
2.71	-0.11175	-0.167077	0.0315456	0.704925	1.00509	-0.33527	0.913778	-0.0140578	-0.254972	-1.94135	0.303048	0.1	-4.23075e-05	-0.0597601	-0.259111	-0.533971	-0.562418	0.354648	0.1	2.91853e-05	-0.0996671	0.145046	-0.252117	-0.511711	-0.473166	0.137042	1.17681	1.37846	0.0999999	-0.0715173	0.108651	-0.664832	0.310034	2.05107	1.47887	0.0610603	-0.0496122
2.72	-0.107484	-0.182277	0.0304101	0.707526	1.01339	-0.335242	0.926907	-0.000428128	-0.266752	-1.82828	0.308759	0.1	-4.23075e-05	-0.133323	-0.276517	-0.568742	-0.511359	0.251341	0.1	2.91853e-05	-0.0991536	0.169728	-0.267804	-0.541898	-0.484301	0.122671	1.20611	1.37516	0.0999999	-0.0715173	0.113338	-0.649143	0.295174	2.09426	1.46081	0.0610603	-0.0496122
2.73	-0.107499	-0.193823	0.0303942	0.710204	1.02088	-0.335318	0.934183	0.00792447	-0.279304	-1.70576	0.311941	0.1	-4.23075e-05	-0.194115	-0.290864	-0.598111	-0.473919	0.153933	0.1	2.91853e-05	-0.0931155	0.190369	-0.283444	-0.572487	-0.493254	0.10294	1.23539	1.378	0.0999999	-0.0715173	0.114451	-0.636938	0.285893	2.13737	1.44472	0.0610603	-0.0496122
2.74	-0.111869	-0.200694	0.0313945	0.712714	1.02729	-0.33549	0.936408	0.0111219	-0.292206	-1.57496	0.313233	0.1	-4.23075e-05	-0.240612	-0.301434	-0.618725	-0.453866	0.0697118	0.1	2.91853e-05	-0.0819353	0.205546	-0.298673	-0.602613	-0.49918	0.0783702	1.26319	1.38538	0.0999999	-0.0715173	0.112988	-0.628728	0.282427	2.17841	1.43295	0.0610603	-0.0496122
2.75	-0.120007	-0.202176	0.0331427	0.714909	1.03255	-0.335737	0.933694	0.00982274	-0.305396	-1.43667	0.313168	0.1	-4.23075e-05	-0.272763	-0.307618	-0.628064	-0.45341	0.00344765	0.1	2.91853e-05	-0.0666812	0.214224	-0.312867	-0.631332	-0.501541	0.0500779	1.2884	1.39426	0.0999999	-0.0715173	0.109615	-0.624658	0.284448	2.21526	1.42671	0.0610603	-0.0496122
2.76	-0.130802	-0.198016	0.0352014	0.716762	1.0367	-0.336018	0.925594	0.00518324	-0.319155	-1.29164	0.311883	0.1	-4.23075e-05	-0.291769	-0.309033	-0.62493	-0.473216	-0.0432322	0.1	2.91853e-05	-0.0488995	0.215955	-0.325206	-0.657696	-0.500221	0.0196352	1.31036	1.40099	0.0999999	-0.0715173	0.104578	-0.624496	0.291141	2.24583	1.42576	0.0610603	-0.0496122
2.77	-0.14284	-0.188507	0.0369981	0.718333	1.03984	-0.33627	0.911347	-0.00126564	-0.333977	-1.14085	0.308877	0.1	-4.23075e-05	-0.299707	-0.305612	-0.609594	-0.512606	-0.0716157	0.1	2.91853e-05	-0.0303547	0.211004	-0.334794	-0.680825	-0.495584	-0.0111657	1.32879	1.40222	0.0999999	-0.0715173	0.0976982	-0.627657	0.301328	2.2683	1.42845	0.0610603	-0.0496122
2.78	-0.154635	-0.174458	0.0378998	0.719729	1.04207	-0.336418	0.890189	-0.00780818	-0.350318	-0.98589	0.302904	0.1	-4.23075e-05	-0.299105	-0.297614	-0.583548	-0.569845	-0.0850045	0.1	2.91853e-05	-0.0127683	0.200355	-0.340812	-0.699964	-0.488452	-0.0405802	1.34377	1.3957	0.0999999	-0.0715173	0.0884699	-0.633279	0.313609	2.28131	1.43231	0.0610603	-0.0496122
2.79	-0.164847	-0.157093	0.0373086	0.721067	1.04348	-0.336395	0.86167	-0.0127546	-0.368278	-0.829126	0.292052	0.1	-4.23075e-05	-0.29254	-0.285639	-0.549255	-0.642522	-0.087542	0.1	2.91853e-05	0.00240177	0.185597	-0.342662	-0.714491	-0.480007	-0.0671136	1.35569	1.38086	0.0999999	-0.0715173	0.0762165	-0.640331	0.326512	2.28401	1.43484	0.0610603	-0.0496122
2.8	-0.172456	-0.137916	0.0347585	0.722436	1.04412	-0.33615	0.825919	-0.0146492	-0.38731	-0.673905	0.274118	0.1	-4.23075e-05	-0.28231	-0.270639	-0.509855	-0.727943	-0.0832312	0.1	2.91853e-05	0.0141109	0.168696	-0.340056	-0.723891	-0.471633	-0.0896126	1.36508	1.35897	0.0999999	-0.0715173	0.0602697	-0.647741	0.338629	2.27616	1.4344	0.0610603	-0.0496122
2.81	-0.17688	-0.11852	0.0299656	0.723883	1.04399	-0.335666	0.783826	-0.0124797	-0.406144	-0.524576	0.247327	0.1	-4.23075e-05	-0.270189	-0.253883	-0.46869	-0.823436	-0.0753993	0.1	2.91853e-05	0.0217925	0.151734	-0.333059	-0.727708	-0.464726	-0.10725	1.37249	1.33275	0.0999999	-0.0715173	0.0401411	-0.654527	0.348753	2.25803	1.43068	0.0610603	-0.0496122
2.82	-0.177985	-0.10043	0.0228706	0.725407	1.0431	-0.334937	0.737116	-0.00581372	-0.422893	-0.386432	0.211221	0.1	-4.23075e-05	-0.257282	-0.236903	-0.428883	-0.926619	-0.0664467	0.1	2.91853e-05	0.0253326	0.136657	-0.322038	-0.725501	-0.460516	-0.11946	1.37838	1.30564	0.0999999	-0.0715173	0.015665	-0.659901	0.356008	2.2303	1.42481	0.0610603	-0.0496122
2.83	-0.176027	-0.0849704	0.0136411	0.726937	1.0414	-0.333972	0.688278	0.0051293	-0.435414	-0.26555	0.167491	0.1	-4.23075e-05	-0.243987	-0.221391	-0.392989	-1.03559	-0.057779	0.1	2.91853e-05	0.0249543	0.125072	-0.307567	-0.716825	-0.459906	-0.125885	1.38306	1.28096	0.0999999	-0.0715173	-0.0129002	-0.66335	0.359984	2.19388	1.41886	0.0610603	-0.0496122
2.84	-0.171521	-0.0731608	0.0026476	0.728308	1.03885	-0.332813	0.640375	0.019458	-0.441896	-0.16851	0.120474	0.1	-4.23075e-05	-0.230052	-0.209023	-0.362686	-1.14896	-0.0498912	0.1	2.91853e-05	0.0210615	0.118118	-0.290322	-0.701252	-0.463366	-0.126354	1.38672	1.26105	0.0999999	-0.0715173	-0.044834	-0.664664	0.360823	2.14984	1.41502	0.0610603	-0.0496122
2.85	-0.165129	-0.0656386	-0.00957566	0.729319	1.03542	-0.33152	0.596684	0.0357267	-0.441393	-0.101773	0.0769289	0.1	-4.23075e-05	-0.214686	-0.201233	-0.338621	-1.26576	-0.0425612	0.1	2.91853e-05	0.0141017	0.116406	-0.270976	-0.67843	-0.470895	-0.12092	1.38943	1.24689	0.0999999	-0.0715173	-0.0789966	-0.663928	0.359248	2.09924	1.41485	0.0610603	-0.0496122
2.86	-0.157537	-0.0626166	-0.0223798	0.729795	1.03114	-0.330169	0.560116	0.05226	-0.434058	-0.0704123	0.0448616	0.1	-4.23075e-05	-0.196648	-0.198991	-0.320401	-1.38528	-0.0351236	0.1	2.91853e-05	0.00453193	0.120027	-0.250138	-0.64816	-0.482027	-0.109916	1.39125	1.23818	0.0999999	-0.0715173	-0.113955	-0.661457	0.356489	2.04312	1.4188	0.0610603	-0.0496122
2.87	-0.149445	-0.0638805	-0.0350575	0.729603	1.02599	-0.328854	0.532649	0.0675205	-0.420715	-0.0767836	0.03205	0.1	-4.23075e-05	-0.174345	-0.202599	-0.306743	-1.5068	-0.0267573	0.1	2.91853e-05	-0.00715067	0.128568	-0.228325	-0.61049	-0.4959	-0.0939929	1.39222	1.23374	0.0999999	-0.0715173	-0.148182	-0.65773	0.3541	1.98249	1.42613	0.0610603	-0.0496122
2.88	-0.141562	-0.0688096	-0.0469054	0.728662	1.02002	-0.327698	0.514943	0.0803553	-0.402681	-0.119664	0.0445724	0.1	-4.23075e-05	-0.14596	-0.211598	-0.295763	-1.62933	-0.0166806	0.1	2.91853e-05	-0.0203372	0.14116	-0.205962	-0.565786	-0.511356	-0.074129	1.39245	1.23217	0.0999999	-0.0715173	-0.180286	-0.653303	0.353702	1.91839	1.43536	0.0610603	-0.0496122
2.89	-0.1346	-0.0764485	-0.0572988	0.72694	1.01327	-0.326822	0.506146	0.0901143	-0.381657	-0.193935	0.0854321	0.1	-4.23075e-05	-0.10964	-0.224784	-0.28539	-1.75143	-0.00423326	0.1	2.91853e-05	-0.034259	0.156562	-0.183382	-0.514785	-0.527072	-0.0515813	1.39209	1.23232	0.0999999	-0.0715173	-0.209233	-0.648741	0.3567	1.85195	1.4448	0.0610603	-0.0496122
2.9	-0.129217	-0.0856137	-0.0657678	0.724437	1.00596	-0.326319	0.503873	0.0966433	-0.359529	-0.290851	0.153498	0.1	-4.23075e-05	-0.063776	-0.240356	-0.273809	-1.87101	0.0111091	0.1	2.91853e-05	-0.0480058	0.173277	-0.160825	-0.45862	-0.541707	-0.0278221	1.3914	1.23366	0.0999999	-0.0715173	-0.234515	-0.64456	0.364023	1.7845	1.45316	0.0610603	-0.0496122
2.91	-0.125934	-0.0950023	-0.0720511	0.721237	0.9985	-0.326221	0.504407	0.100158	-0.337965	-0.398949	0.243189	0.1	-4.23075e-05	-0.00730883	-0.256117	-0.259844	-1.98537	0.0297353	0.1	2.91853e-05	-0.060605	0.189681	-0.13843	-0.398823	-0.554034	-0.00447011	1.39082	1.23633	0.0999999	-0.0715173	-0.256253	-0.641194	0.375973	1.71763	1.4599	0.0610603	-0.0496122
2.92	-0.125028	-0.103287	-0.076104	0.717542	0.991376	-0.32649	0.503243	0.100969	-0.318277	-0.505727	0.345375	0.1	-4.23075e-05	0.0599848	-0.269706	-0.243203	-2.09125	0.0518188	0.1	2.91853e-05	-0.0711398	0.204132	-0.116249	-0.337311	-0.563055	0.0167748	1.39102	1.24095	0.0999999	-0.0715173	-0.275191	-0.638993	0.392179	1.65321	1.46526	0.0610603	-0.0496122
2.93	-0.126483	-0.109164	-0.078051	0.713597	0.985078	-0.327027	0.496037	0.099069	-0.301609	-0.600063	0.44974	0.1	-4.23075e-05	0.137325	-0.278788	-0.224504	-2.18509	0.077157	0.1	2.91853e-05	-0.0788774	0.215019	-0.0942763	-0.276307	-0.568053	0.0342145	1.393	1.24832	0.0999999	-0.0715173	-0.292617	-0.63827	0.411681	1.59342	1.46987	0.0610603	-0.0496122
2.94	-0.129985	-0.111447	-0.0781166	0.709639	0.979986	-0.327707	0.479294	0.0940391	-0.288979	-0.673705	0.546649	0.1	-4.23075e-05	0.222942	-0.281333	-0.205123	-2.26339	0.105052	0.1	2.91853e-05	-0.0833635	0.220874	-0.0724866	-0.21819	-0.56862	0.0462827	1.39801	1.25897	0.0999999	-0.0715173	-0.310183	-0.639348	0.433088	1.54064	1.47422	0.0610603	-0.0496122
2.95	-0.134996	-0.1092	-0.0765646	0.705915	0.976344	-0.328423	0.450787	0.085221	-0.281279	-0.721886	0.628213	0.1	-4.23075e-05	0.314278	-0.275951	-0.186872	-2.32317	0.134311	0.1	2.91853e-05	-0.0844607	0.220532	-0.050838	-0.165257	-0.564645	0.0517266	1.40748	1.27285	0.0999999	-0.0715173	-0.329684	-0.642571	0.454751	1.49722	1.47825	0.0610603	-0.0496122
2.96	-0.140868	-0.101913	-0.073682	0.702697	0.974296	-0.32912	0.409757	0.0720743	-0.279174	-0.743204	0.688558	0.1	-4.23075e-05	0.408316	-0.262194	-0.171586	-2.3623	0.163377	0.1	2.91853e-05	-0.0823149	0.213336	-0.029258	-0.119462	-0.556301	0.0498109	1.42273	1.28922	0.0999999	-0.0715173	-0.352833	-0.648252	0.474895	1.46529	1.48122	0.0610603	-0.0496122
2.97	-0.147002	-0.0896675	-0.0697963	0.700231	0.973891	-0.329778	0.356911	0.0545407	-0.282961	-0.73909	0.723712	0.1	-4.23075e-05	0.501973	-0.240755	-0.160721	-2.37978	0.190628	0.1	2.91853e-05	-0.077269	0.199297	-0.00761644	-0.0821894	-0.544021	0.0404839	1.44475	1.30682	0.0999999	-0.0715173	-0.381095	-0.656558	0.491692	1.44639	1.48201	0.0610603	-0.0496122
2.98	-0.15301	-0.0732122	-0.0652997	0.698686	0.975072	-0.330393	0.294266	0.0332826	-0.292425	-0.713078	0.731412	0.1	-4.23075e-05	0.59246	-0.213478	-0.155081	-2.37576	0.214754	0.1	2.91853e-05	-0.0697379	0.179188	0.0142794	-0.0541221	-0.528486	0.024449	1.47397	1.32418	0.0999999	-0.0715173	-0.415563	-0.667368	0.503318	1.44123	1.47965	0.0610603	-0.0496122
2.99	-0.158814	-0.0538978	-0.0606455	0.698138	0.977678	-0.330959	0.224871	0.00969701	-0.306757	-0.670103	0.711041	0.1	-4.23075e-05	0.677569	-0.183134	-0.154694	-2.35145	0.235036	0.1	2.91853e-05	-0.0600821	0.154518	0.0366407	-0.03522	-0.510595	0.00310981	1.51018	1.34008	0.0999999	-0.0715173	-0.456884	-0.680163	0.508029	1.44952	1.47384	0.0610603	-0.0496122
